<svg width="48" height="48" viewBox="0 0 48 48" fill="none" xmlns="http://www.w3.org/2000/svg">
  <path d="M24 4C18 4 12 8 10 20C10 20 14 22 18 22C22 22 24 20 24 20C24 20 26 22 30 22C34 22 38 20 38 20C36 8 30 4 24 4Z" stroke="currentColor" stroke-width="2" fill="none"/>
  <path d="M24 24C24 24 20 26 18 30C16 34 16 40 16 40C16 40 22 38 24 38C26 38 32 40 32 40C32 40 32 34 30 30C28 26 24 24 24 24Z" stroke="currentColor" stroke-width="2" fill="none"/>
  <circle cx="24" cy="18" r="3" stroke="currentColor" stroke-width="2" fill="none"/>
</svg>